{"title":"The Iron Lady 2011 CAM READNFO x264 AC3 - DTRG","uid":6965017,"size":1469052523,"categoryP":"video","categoryS":"movies","magnet":"?xt=urn:btih:1f17d86dbe2b6787b41ca474c564fc1a83e53af5&amp;dn=The+Iron+Lady+2011+CAM+READNFO+x264+AC3+-+DTRG&amp;tr=udp%3A%2F%2Ftracker.openbittorrent.com%3A80&amp;tr=udp%3A%2F%2Fopen.demonii.com%3A1337&amp;tr=udp%3A%2F%2Ftracker.coppersurfer.tk%3A6969&amp;tr=udp%3A%2F%2Fexodus.desync.com%3A6969","seeders":1,"leechers":0,"uploader":"THEONE1982","files":-1,"time":1326893841,"description":"Format: Matroska\n Format version: Version 2\n File size: 1.37 GiB\n Duration: 1h 40mn\n Overall bit rate: 1 957 Kbps\n Encoded date: UTC 2012-01-18 00:36:29\n Writing application: mkvmerge v5.2.1 ('A Far Off Place') built on Jan 2 2012 23:21:10\n Writing library: libebml v1.2.3 + libmatroska v1.3.0\n \nVideo\n ID: 1\n Format: AVC\n Format/Info: Advanced Video Codec\n Format profile: &lt;a class=&quot;__cf_email__&quot; href=&quot;/cdn-cgi/l/email-protection&quot; data-cfemail=&quot;4109282629010d726f71&quot;&gt;[email&amp;#160;protected]&lt;/a&gt;&lt;script cf-hash='f9e31' type=&quot;text/javascript&quot;&gt;\n/* &lt;![CDATA[ */!function(){try{var t=&quot;currentScript&quot;in document?document.currentScript:function(){for(var t=document.getElementsByTagName(&quot;script&quot;),e=t.length;e--;)if(t[e].getAttribute(&quot;cf-hash&quot;))return t[e]}();if(t&amp;&amp;t.previousSibling){var e,r,n,i,c=t.previousSibling,a=c.getAttribute(&quot;data-cfemail&quot;);if(a){for(e=&quot;&quot;,r=parseInt(a.substr(0,2),16),n=2;a.length-n;n+=2)i=parseInt(a.substr(n,2),16)^r,e+=String.fromCharCode(i);e=document.createTextNode(e),c.parentNode.replaceChild(e,c)}}}catch(u){}}();/* ]]&gt; */&lt;/script&gt;\n Format settings, CABAC: Yes\n Format settings, ReFrames: 4 frames\n Muxing mode: Header stripping\n Codec ID: V_MPEG4/ISO/AVC\n Duration: 1h 40mn\n Bit rate: 1 828 Kbps\n Width: 720 pixels\n Height: 304 pixels\n Display aspect ratio: 2.35:1\n Frame rate: 25.000 fps\n Color space: YUV\n Chroma subsampling: 4:2:0\n Bit depth: 8 bits\n Scan type: Progressive\n Bits/(Pixel*Frame): 0.334\n Stream size: 1.25 GiB (91%)\n Writing library: x264 core 116 r2074 2641b9e\n Language: English\n Default: Yes\n Forced: No\n Source: INSPiRAL, cheers\n \nAudio\n ID: 2\n Format: AC-3\n Format/Info: Audio Coding 3\n Mode extension: CM (complete main)\n Muxing mode: Header stripping\n Codec ID: A_AC3\n Duration: 1h 40mn\n Bit rate mode: Constant\n Bit rate: 128 Kbps\n Channel(s): 2 channels\n Channel positions: Front: L R\n Sampling rate: 44.1 KHz\n Bit depth: 16 bits\n Compression mode: Lossy\n Stream size: 91.6 MiB (7%)\n Default: Yes\n Forced: No\n Source: INSPiRAL, cheers\n \n\nTells the story of a woman who smashed through the barriers of gender and class to be heard in a male-dominated world. The story concerns power and the price that is paid for power, and is a surprising and insightful portrait of an extraordinary and complex woman.\n\n\nScreenshots here:   &lt;a href=&quot; http://imageshack.us/g/405/44617902.jpg/&quot; rel=&quot;nofollow&quot; target=&quot;_NEW&quot;&gt; http://imageshack.us/g/405/44617902.jpg/&lt;/a&gt;\n\n\nEnjoy!!!!!!!!!!!!!","torrent":{"xt":"urn:btih:1f17d86dbe2b6787b41ca474c564fc1a83e53af5","amp;dn":"The+Iron+Lady+2011+CAM+READNFO+x264+AC3+-+DTRG","amp;tr":["udp%3A%2F%2Ftracker.openbittorrent.com%3A80","udp%3A%2F%2Fopen.demonii.com%3A1337","udp%3A%2F%2Ftracker.coppersurfer.tk%3A6969","udp%3A%2F%2Fexodus.desync.com%3A6969"],"infoHash":"1f17d86dbe2b6787b41ca474c564fc1a83e53af5","infoHashBuffer":{"type":"Buffer","data":[31,23,216,109,190,43,103,135,180,28,164,116,197,100,252,26,131,229,58,245]},"announce":[],"urlList":[]}}